<svg aria-hidden="true" style="position:absolute;width:0;height:0" xmlns="http://www.w3.org/2000/svg" overflow="hidden">
    <defs>
        <symbol id="icon-burger-menu" viewBox="0 0 46 32">
            <path stroke-linejoin="miter" stroke-linecap="round" stroke-miterlimit="4" stroke-width="3.5556" d="M1.778 1.778h42.667"></path>
            <path stroke-linejoin="miter" stroke-linecap="round" stroke-miterlimit="4" stroke-width="3.5556" d="M1.778 16h42.667"></path>
            <path stroke-linejoin="miter" stroke-linecap="round" stroke-miterlimit="4" stroke-width="3.5556" d="M1.778 30.222h42.667"></path>
            </symbol>
        <symbol id="icon-arrow" viewBox="0 0 38 32">
            <path d="M18.959 31.031c-1.508 0-2.927-0.587-3.992-1.655s-1.656-2.487-1.655-3.996c0-1.404 0.51-1.879 1.438-3.761h-9.103c-3.113 0-5.647-2.536-5.647-5.647s2.534-5.647 5.647-5.647h9.103c-0.93-1.882-1.438-2.362-1.438-3.767-0.002-0.742 0.144-1.477 0.428-2.162s0.702-1.307 1.228-1.83c2.131-2.131 5.85-2.133 7.983 0.002l13.404 13.404-13.404 13.404c-0.523 0.526-1.145 0.943-1.83 1.227s-1.42 0.429-2.162 0.427zM5.647 14.090c-0.485 0.022-0.942 0.229-1.278 0.58s-0.522 0.817-0.522 1.302c0 0.485 0.187 0.952 0.522 1.302s0.793 0.558 1.278 0.58h18.18l-6.199 6.199c-0.353 0.353-0.551 0.831-0.552 1.329 0 0.506 0.196 0.977 0.552 1.333 0.358 0.343 0.835 0.534 1.331 0.534s0.972-0.191 1.331-0.534l10.743-10.743-10.743-10.743c-0.358-0.343-0.835-0.534-1.331-0.534s-0.972 0.191-1.331 0.534c-0.353 0.352-0.551 0.83-0.552 1.329 0 0.504 0.196 0.977 0.552 1.333l6.199 6.199h-18.18z"></path>
            </symbol>
            <symbol id="back-to-future" viewBox="0 0 24 25">
                <path d="M6.27056 2.05385C6.43574 1.8787 6.52566 1.64703 6.52139 1.40766C6.51711 1.16829 6.41897 0.939909 6.24765 0.770623C6.07632 0.601337 5.84518 0.504367 5.60293 0.500144C5.36068 0.495921 5.12622 0.584773 4.94896 0.747982L0.273472 5.3678C0.0983593 5.54104 0 5.77588 0 6.02073C0 6.26558 0.0983593 6.50042 0.273472 6.67367L4.94896 11.2935C5.12622 11.4567 5.36068 11.5455 5.60293 11.5413C5.84518 11.5371 6.07632 11.4401 6.24765 11.2708C6.41897 11.1016 6.51711 10.8732 6.52139 10.6338C6.52566 10.3944 6.43574 10.1628 6.27056 9.98762L3.1916 6.9447H14.1815C18.5715 6.9447 22.1298 10.4607 22.1298 14.7984C22.1298 19.1361 18.5715 22.6521 14.1815 22.6521C9.79151 22.6521 6.23316 19.1361 6.23316 14.7984C6.23316 14.5533 6.13464 14.3183 5.95927 14.145C5.78391 13.9718 5.54606 13.8744 5.29806 13.8744C5.05006 13.8744 4.81221 13.9718 4.63685 14.145C4.46148 14.3183 4.36296 14.5533 4.36296 14.7984C4.36296 20.1568 8.75917 24.5 14.1815 24.5C19.6038 24.5 24 20.1568 24 14.7984C24 9.44001 19.6044 5.09677 14.1815 5.09677H3.1916L6.27056 2.05385Z" />
        </symbol>
        <symbol id="menu-close" viewBox="0 0 14 14">
            <path d="M1.39989 13.308L0.691895 12.6L6.29189 7.00002L0.691895 1.40002L1.39989 0.692017L6.99989 6.29202L12.5999 0.692017L13.3079 1.40002L7.70789 7.00002L13.3079 12.6L12.5999 13.308L6.99989 7.70802L1.39989 13.308Z" />
          </symbol>
          <symbol id="scroll-up" viewBox="0 0 24 24" >
            <g clip-path="url(#clip0_324_8)">
              <path d="M12 23.25C18.2132 23.25 23.25 18.2132 23.25 12C23.25 5.7868 18.2132 0.75 12 0.75C5.7868 0.75 0.75 5.7868 0.75 12C0.75 18.2132 5.7868 23.25 12 23.25Z" fill="#F2B7FE" />
              <path d="M18 11.3625L12 5.625L6 11.3625H9.975V18.375H13.8375V11.3625H18Z" fill="#FAFFB7" />
            </g>
            <defs>
              <clipPath id="clip0_324_8">
                <rect width="24" height="24" fill="white" />
              </clipPath>
            </defs>
          </symbol>
    </defs>
</svg>
