<svg aria-hidden="true" style="position:absolute;width:0;height:0" xmlns="http://www.w3.org/2000/svg" overflow="hidden">
    <defs>
        <symbol id="icon-burger-menu" viewBox="0 0 46 32">
            <path stroke-linejoin="miter" stroke-linecap="round" stroke-miterlimit="4" stroke-width="3.5556" d="M1.778 1.778h42.667"></path>
            <path stroke-linejoin="miter" stroke-linecap="round" stroke-miterlimit="4" stroke-width="3.5556" d="M1.778 16h42.667"></path>
            <path stroke-linejoin="miter" stroke-linecap="round" stroke-miterlimit="4" stroke-width="3.5556" d="M1.778 30.222h42.667"></path>
            </symbol>
        <symbol id="icon-arrow" viewBox="0 0 38 32">
            <path d="M18.959 31.031c-1.508 0-2.927-0.587-3.992-1.655s-1.656-2.487-1.655-3.996c0-1.404 0.51-1.879 1.438-3.761h-9.103c-3.113 0-5.647-2.536-5.647-5.647s2.534-5.647 5.647-5.647h9.103c-0.93-1.882-1.438-2.362-1.438-3.767-0.002-0.742 0.144-1.477 0.428-2.162s0.702-1.307 1.228-1.83c2.131-2.131 5.85-2.133 7.983 0.002l13.404 13.404-13.404 13.404c-0.523 0.526-1.145 0.943-1.83 1.227s-1.42 0.429-2.162 0.427zM5.647 14.090c-0.485 0.022-0.942 0.229-1.278 0.58s-0.522 0.817-0.522 1.302c0 0.485 0.187 0.952 0.522 1.302s0.793 0.558 1.278 0.58h18.18l-6.199 6.199c-0.353 0.353-0.551 0.831-0.552 1.329 0 0.506 0.196 0.977 0.552 1.333 0.358 0.343 0.835 0.534 1.331 0.534s0.972-0.191 1.331-0.534l10.743-10.743-10.743-10.743c-0.358-0.343-0.835-0.534-1.331-0.534s-0.972 0.191-1.331 0.534c-0.353 0.352-0.551 0.83-0.552 1.329 0 0.504 0.196 0.977 0.552 1.333l6.199 6.199h-18.18z"></path>
            </symbol>
            <symbol id="back-to-future" viewBox="0 0 24 25">
                <path d="M6.27056 2.05385C6.43574 1.8787 6.52566 1.64703 6.52139 1.40766C6.51711 1.16829 6.41897 0.939909 6.24765 0.770623C6.07632 0.601337 5.84518 0.504367 5.60293 0.500144C5.36068 0.495921 5.12622 0.584773 4.94896 0.747982L0.273472 5.3678C0.0983593 5.54104 0 5.77588 0 6.02073C0 6.26558 0.0983593 6.50042 0.273472 6.67367L4.94896 11.2935C5.12622 11.4567 5.36068 11.5455 5.60293 11.5413C5.84518 11.5371 6.07632 11.4401 6.24765 11.2708C6.41897 11.1016 6.51711 10.8732 6.52139 10.6338C6.52566 10.3944 6.43574 10.1628 6.27056 9.98762L3.1916 6.9447H14.1815C18.5715 6.9447 22.1298 10.4607 22.1298 14.7984C22.1298 19.1361 18.5715 22.6521 14.1815 22.6521C9.79151 22.6521 6.23316 19.1361 6.23316 14.7984C6.23316 14.5533 6.13464 14.3183 5.95927 14.145C5.78391 13.9718 5.54606 13.8744 5.29806 13.8744C5.05006 13.8744 4.81221 13.9718 4.63685 14.145C4.46148 14.3183 4.36296 14.5533 4.36296 14.7984C4.36296 20.1568 8.75917 24.5 14.1815 24.5C19.6038 24.5 24 20.1568 24 14.7984C24 9.44001 19.6044 5.09677 14.1815 5.09677H3.1916L6.27056 2.05385Z" />
        </symbol>
        <symbol id="menu-close" viewBox="0 0 14 14">
            <path d="M1.39989 13.308L0.691895 12.6L6.29189 7.00002L0.691895 1.40002L1.39989 0.692017L6.99989 6.29202L12.5999 0.692017L13.3079 1.40002L7.70789 7.00002L13.3079 12.6L12.5999 13.308L6.99989 7.70802L1.39989 13.308Z" />
          </symbol>
          <symbol id="scroll-up" viewBox="0 0 24 24" >
            <g clip-path="url(#clip0_324_8)">
              <path d="M12 23.25C18.2132 23.25 23.25 18.2132 23.25 12C23.25 5.7868 18.2132 0.75 12 0.75C5.7868 0.75 0.75 5.7868 0.75 12C0.75 18.2132 5.7868 23.25 12 23.25Z" fill="#F2B7FE" />
              <path d="M18 11.3625L12 5.625L6 11.3625H9.975V18.375H13.8375V11.3625H18Z" fill="#FAFFB7" />
            </g>
            <defs>
              <clipPath id="clip0_324_8">
                <rect width="24" height="24" fill="white" />
              </clipPath>
            </defs>
          </symbol>
          <symbol id="icon-donut" viewBox="0 0 36 36">
            <path fill-rule="evenodd" clip-rule="evenodd" d="M2.8735 15.0118C2.60775 16.3646 2.52368 17.7468 2.6235 19.1218L2.7335 19.2118C3.10016 19.5052 3.61683 19.8952 4.22016 20.2835C5.48183 21.0968 6.88683 21.7502 8.00016 21.7502C8.72683 21.7502 9.60683 21.4685 10.5302 21.0035C11.0918 20.7202 11.6285 20.3918 12.1018 20.0702C11.7495 19.0652 11.6598 17.9869 11.8413 16.9375C12.0227 15.8882 12.4693 14.9026 13.1386 14.0743C13.8079 13.246 14.6777 12.6024 15.6656 12.2047C16.6535 11.807 17.7266 11.6682 18.7831 11.8017C19.8396 11.9351 20.8446 12.3363 21.7025 12.9672C22.5604 13.5981 23.2429 14.4378 23.6853 15.4065C24.1276 16.3752 24.315 17.4409 24.2298 18.5024C24.1447 19.5639 23.7896 20.586 23.1985 21.4718C23.5685 21.6502 23.9518 21.7502 24.3418 21.7502C25.1135 21.7502 25.4785 21.3835 26.2035 20.5268L26.2568 20.4635C26.8585 19.7502 27.7385 18.7068 29.3002 18.4668C29.0875 18.4017 28.8961 18.281 28.7457 18.1172C28.5952 17.9535 28.4912 17.7525 28.4443 17.5351C28.3974 17.3177 28.4094 17.0918 28.479 16.8805C28.5486 16.6693 28.6733 16.4805 28.8402 16.3335L31.6368 13.8702C31.7905 13.7346 31.9752 13.639 32.1746 13.5916C32.374 13.5442 32.5819 13.5466 32.7802 13.5985C32.3988 12.3166 31.8514 11.0901 31.1518 9.95016L30.5518 10.5502C30.4366 10.6696 30.2987 10.7649 30.1462 10.8305C29.9937 10.8961 29.8297 10.9306 29.6638 10.9321C29.4978 10.9337 29.3332 10.9021 29.1795 10.8393C29.0259 10.7766 28.8863 10.6838 28.7688 10.5665C28.6514 10.4492 28.5585 10.3097 28.4956 10.1561C28.4327 10.0025 28.401 9.8379 28.4024 9.67192C28.4037 9.50595 28.4381 9.34191 28.5036 9.18937C28.569 9.03684 28.6642 8.89886 28.7835 8.7835L29.6568 7.91016C28.211 6.23653 26.4212 4.89435 24.4096 3.97512C22.398 3.05589 20.2118 2.58123 18.0002 2.5835C15.0502 2.5835 12.2935 3.41183 9.95016 4.85016L10.5502 5.45016C10.771 5.68712 10.8912 6.00053 10.8855 6.32437C10.8797 6.6482 10.7486 6.95718 10.5195 7.1862C10.2905 7.41522 9.98153 7.54641 9.6577 7.55212C9.33387 7.55783 9.02045 7.43763 8.7835 7.21683L7.91016 6.3435C6.22312 7.80537 4.87175 9.6144 3.9485 11.6468C4.27791 11.6314 4.60008 11.7467 4.84482 11.9678C5.08957 12.1888 5.23706 12.4976 5.25516 12.8268L5.38683 15.1802C5.39591 15.3441 5.37262 15.5082 5.31827 15.6631C5.26393 15.8181 5.17961 15.9608 5.07011 16.0831C4.96061 16.2055 4.82809 16.305 4.68011 16.3762C4.53214 16.4473 4.3716 16.4886 4.20766 16.4977C4.04373 16.5067 3.87961 16.4834 3.72468 16.4291C3.56975 16.3748 3.42704 16.2904 3.3047 16.1809C3.18236 16.0714 3.08278 15.9389 3.01166 15.7909C2.94053 15.643 2.89925 15.4824 2.89016 15.3185L2.8735 15.0118ZM33.2568 15.7752L30.4918 18.2085C30.3918 18.2952 30.2795 18.3665 30.1585 18.4202C31.4202 18.4685 32.4885 18.9985 33.3318 19.6335C33.4659 18.3492 33.4407 17.0533 33.2568 15.7752ZM32.7518 22.4952C32.0152 21.6635 31.0318 20.9168 29.9735 20.9168C29.2018 20.9168 28.8385 21.2835 28.1135 22.1402L28.0602 22.2035C27.3768 23.0152 26.3335 24.2502 24.3435 24.2502C23.1635 24.2502 22.1502 23.8218 21.3385 23.2835C20.3718 23.8952 19.2285 24.2502 18.0002 24.2502C17.1323 24.251 16.2738 24.0705 15.4797 23.7204C14.6855 23.3702 13.9733 22.8581 13.3885 22.2168C12.8718 22.5635 12.2818 22.9218 11.6552 23.2368C10.5852 23.7752 9.2935 24.2502 8.00016 24.2502C6.31183 24.2502 4.5885 23.4368 3.30016 22.6552C4.29555 25.79 6.26702 28.5245 8.92671 30.4595C11.5864 32.3944 14.795 33.4285 18.084 33.4106C21.3731 33.3927 24.5702 32.3239 27.2087 30.3602C29.8472 28.3964 31.7906 25.6406 32.7518 22.4952ZM0.0834961 18.0002C0.0834961 8.10516 8.10516 0.0834961 18.0002 0.0834961C27.8952 0.0834961 35.9168 8.10516 35.9168 18.0002C35.9168 27.8952 27.8952 35.9168 18.0002 35.9168C8.10516 35.9168 0.0834961 27.8952 0.0834961 18.0002ZM15.4502 3.7835C15.6845 3.54941 16.0022 3.41793 16.3335 3.41793C16.6647 3.41793 16.9825 3.54941 17.2168 3.7835L18.8835 5.45016C19.1043 5.68712 19.2245 6.00053 19.2188 6.32437C19.2131 6.6482 19.0819 6.95718 18.8529 7.1862C18.6238 7.41522 18.3149 7.54641 17.991 7.55212C17.6672 7.55783 17.3538 7.43763 17.1168 7.21683L15.4502 5.55016C15.2161 5.31579 15.0846 4.99808 15.0846 4.66683C15.0846 4.33558 15.2161 4.01787 15.4502 3.7835ZM25.4168 5.3335C25.5482 5.43199 25.6588 5.55538 25.7424 5.69663C25.8261 5.83788 25.8811 5.99422 25.9043 6.15672C25.9275 6.31922 25.9185 6.48471 25.8777 6.64372C25.837 6.80274 25.7653 6.95217 25.6668 7.0835L23.1668 10.4168C23.0683 10.5482 22.9449 10.6588 22.8037 10.7424C22.6624 10.8261 22.5061 10.8811 22.3436 10.9043C22.1811 10.9275 22.0156 10.9185 21.8566 10.8777C21.6976 10.837 21.5482 10.7653 21.4168 10.6668C21.2855 10.5683 21.1749 10.4449 21.0912 10.3037C21.0076 10.1624 20.9526 10.0061 20.9294 9.84361C20.9062 9.6811 20.9152 9.51562 20.9559 9.3566C20.9967 9.19759 21.0683 9.04815 21.1668 8.91683L23.6668 5.5835C23.7653 5.45217 23.8887 5.34154 24.03 5.2579C24.1712 5.17427 24.3276 5.11927 24.4901 5.09606C24.6526 5.07284 24.818 5.08186 24.9771 5.1226C25.1361 5.16334 25.2855 5.235 25.4168 5.3335ZM16.7068 9.3435C16.7924 9.66352 16.7474 10.0044 16.5818 10.2913C16.4161 10.5782 16.1434 10.7876 15.8235 10.8735L13.5468 11.4835C13.3863 11.5326 13.2176 11.5488 13.0507 11.5313C12.8838 11.5138 12.7221 11.4628 12.5753 11.3814C12.4285 11.3001 12.2996 11.19 12.1963 11.0577C12.0929 10.9255 12.0173 10.7738 11.9739 10.6117C11.9304 10.4496 11.9201 10.2804 11.9434 10.1142C11.9668 9.94796 12.0234 9.78817 12.1098 9.64431C12.1963 9.50046 12.3108 9.37548 12.4466 9.27684C12.5824 9.17819 12.7366 9.10791 12.9002 9.07016L15.1768 8.46016C15.4968 8.37462 15.8377 8.4196 16.1246 8.58523C16.4115 8.75086 16.6209 9.02358 16.7068 9.3435ZM7.8285 9.95683C8.13019 9.81967 8.47401 9.80793 8.78436 9.92419C9.0947 10.0405 9.34618 10.2752 9.4835 10.5768L10.4585 12.7218C10.5871 13.0221 10.593 13.3608 10.4749 13.6654C10.3569 13.97 10.1243 14.2163 9.82701 14.3516C9.52967 14.4868 9.19119 14.5003 8.88403 14.3892C8.57686 14.278 8.32541 14.0511 8.1835 13.7568L7.20683 11.6118C7.13897 11.4623 7.10121 11.301 7.09573 11.1369C7.09024 10.9728 7.11713 10.8092 7.17486 10.6556C7.23259 10.5019 7.32003 10.3611 7.43218 10.2412C7.54433 10.1213 7.679 10.0247 7.8285 9.95683ZM25.6918 11.7118C26.0229 11.6964 26.3465 11.8132 26.5915 12.0363C26.8366 12.2595 26.9829 12.5708 26.9985 12.9018L27.1085 15.2568C27.1199 15.4229 27.0981 15.5896 27.0442 15.7471C26.9904 15.9046 26.9056 16.0498 26.7949 16.1741C26.6841 16.2984 26.5497 16.3994 26.3994 16.471C26.2492 16.5427 26.0861 16.5836 25.9198 16.5914C25.7535 16.5991 25.5873 16.5736 25.431 16.5163C25.2747 16.459 25.1315 16.371 25.0096 16.2576C24.8878 16.1441 24.7899 16.0075 24.7215 15.8557C24.6532 15.7038 24.6159 15.5399 24.6118 15.3735L24.5018 13.0202C24.494 12.8561 24.5185 12.6921 24.5741 12.5375C24.6297 12.383 24.7152 12.2409 24.8257 12.1194C24.9362 11.9979 25.0696 11.8993 25.2182 11.8294C25.3668 11.7595 25.5278 11.7195 25.6918 11.7118ZM18.0002 14.2502C17.0056 14.2502 16.0518 14.6453 15.3485 15.3485C14.6453 16.0518 14.2502 17.0056 14.2502 18.0002C14.2502 18.9947 14.6453 19.9486 15.3485 20.6518C16.0518 21.3551 17.0056 21.7502 18.0002 21.7502C18.9947 21.7502 19.9486 21.3551 20.6518 20.6518C21.3551 19.9486 21.7502 18.9947 21.7502 18.0002C21.7502 17.0056 21.3551 16.0518 20.6518 15.3485C19.9486 14.6453 18.9947 14.2502 18.0002 14.2502ZM9.57183 16.1585C9.8392 16.3544 10.0178 16.6484 10.0685 16.9759C10.1191 17.3035 10.0376 17.6377 9.84183 17.9052L8.45016 19.8068C8.35465 19.9429 8.23294 20.0586 8.09217 20.147C7.95141 20.2355 7.7944 20.295 7.63036 20.3221C7.46631 20.3491 7.29852 20.3432 7.1368 20.3046C6.97508 20.2659 6.82269 20.1955 6.68854 20.0972C6.5544 19.999 6.4412 19.875 6.35557 19.7325C6.26994 19.59 6.2136 19.4318 6.18985 19.2673C6.1661 19.1027 6.17541 18.9351 6.21725 18.7742C6.25909 18.6133 6.3326 18.4623 6.4335 18.3302L7.82516 16.4302C8.02077 16.1625 8.31468 15.9836 8.64224 15.9326C8.96979 15.8817 9.30417 15.9629 9.57183 16.1585Z" />
          </symbol>
    </defs>
</svg>
