<svg aria-hidden="true" style="position:absolute;width:0;height:0" xmlns="http://www.w3.org/2000/svg" overflow="hidden">
    <defs>
        <symbol id="icon-burger-menu" viewBox="0 0 46 32">
            <path stroke-linejoin="miter" stroke-linecap="round" stroke-miterlimit="4" stroke-width="3.5556" d="M1.778 1.778h42.667"></path>
            <path stroke-linejoin="miter" stroke-linecap="round" stroke-miterlimit="4" stroke-width="3.5556" d="M1.778 16h42.667"></path>
            <path stroke-linejoin="miter" stroke-linecap="round" stroke-miterlimit="4" stroke-width="3.5556" d="M1.778 30.222h42.667"></path>
            </symbol>
        <symbol id="icon-arrow" viewBox="0 0 38 32">
            <path d="M18.959 31.031c-1.508 0-2.927-0.587-3.992-1.655s-1.656-2.487-1.655-3.996c0-1.404 0.51-1.879 1.438-3.761h-9.103c-3.113 0-5.647-2.536-5.647-5.647s2.534-5.647 5.647-5.647h9.103c-0.93-1.882-1.438-2.362-1.438-3.767-0.002-0.742 0.144-1.477 0.428-2.162s0.702-1.307 1.228-1.83c2.131-2.131 5.85-2.133 7.983 0.002l13.404 13.404-13.404 13.404c-0.523 0.526-1.145 0.943-1.83 1.227s-1.42 0.429-2.162 0.427zM5.647 14.090c-0.485 0.022-0.942 0.229-1.278 0.58s-0.522 0.817-0.522 1.302c0 0.485 0.187 0.952 0.522 1.302s0.793 0.558 1.278 0.58h18.18l-6.199 6.199c-0.353 0.353-0.551 0.831-0.552 1.329 0 0.506 0.196 0.977 0.552 1.333 0.358 0.343 0.835 0.534 1.331 0.534s0.972-0.191 1.331-0.534l10.743-10.743-10.743-10.743c-0.358-0.343-0.835-0.534-1.331-0.534s-0.972 0.191-1.331 0.534c-0.353 0.352-0.551 0.83-0.552 1.329 0 0.504 0.196 0.977 0.552 1.333l6.199 6.199h-18.18z"></path>
            </symbol>
    </defs>
</svg>
